<svg width="190" height="167" viewBox="0 0 190 167" fill="none" xmlns="http://www.w3.org/2000/svg">
<path fill-rule="evenodd" clip-rule="evenodd" d="M187.726 78.208C189.513 81.302 189.513 85.114 187.726 88.208L145.46 161.416C143.674 164.51 140.372 166.416 136.8 166.416H52.2666C48.6939 166.416 45.3926 164.51 43.6063 161.416L1.33974 88.208C-0.44658 85.114 -0.44658 81.302 1.33974 78.208L43.6063 5.00001C45.3926 1.90599 48.6939 0 52.2666 0H136.8C140.372 0 143.674 1.90599 145.46 5.00001L187.726 78.208ZM59.208 11.1475C55.6353 11.1475 52.334 13.0535 50.5477 16.1475L14.7176 78.208C12.9313 81.302 12.9313 85.114 14.7177 88.208L50.5477 150.268C52.334 153.362 55.6353 155.268 59.208 155.268H130.869C134.442 155.268 137.743 153.362 139.529 150.268L175.36 88.208C177.146 85.114 177.146 81.302 175.36 78.2079L139.529 16.1474C137.743 13.0534 134.442 11.1475 130.869 11.1475H59.208Z" fill="#D9D9D9"/>
<path d="M11.8311 83.208L53.4351 11.1478H136.643L178.247 83.208L136.643 155.268H53.4351L11.8311 83.208Z" fill="#5E5E5E"/>
<rect x="92" width="6" height="166.42" fill="#5E5E5E"/>
<path d="M109.128 38.7148L127.922 49.5658L133.71 39.5417L114.915 28.6907L109.128 38.7148Z" fill="#8A0000"/>
<path d="M69.6298 102.786L92.1833 115.808L115.695 75.0846L93.1412 62.0634L69.6298 102.786Z" fill="#8A0000"/>
<rect x="109.134" y="17.0001" width="43.4041" height="7.23427" transform="rotate(30 109.134 17.0001)" fill="#8A0000"/>
<rect x="99.7305" y="33.2894" width="43.4041" height="5.06399" transform="rotate(30 99.7305 33.2894)" fill="#8A0000"/>
<rect x="57.3936" y="126.295" width="23.8723" height="6.51084" transform="rotate(30 57.3936 126.295)" fill="#8A0000"/>
<rect x="68.377" y="102.063" width="28.9361" height="1.73622" transform="rotate(30 68.377 102.063)" fill="#8A0000"/>
<path d="M114.916 28.6908L129.952 37.3716L112.022 33.7028L114.916 28.6908Z" fill="#5E5E5E"/>
<rect x="95.3887" y="40.8075" width="43.4041" height="15.9154" transform="rotate(30 95.3887 40.8075)" fill="#8A0000"/>
<rect x="125.391" y="53.9515" width="23.1497" height="21.7021" transform="rotate(120 125.391 53.9515)" fill="#8A0000"/>
<path d="M95.3897 40.8075L106.596 43.1005L104.787 46.233L95.3897 40.8075Z" fill="#8A0000"/>
<path d="M87.4326 54.5906L95.0213 63.1486L96.8299 60.0161L87.4326 54.5906Z" fill="#8A0000"/>
<path d="M103.612 70.114L100.373 67.4779L102.273 67.3361L106.687 69.8845L107.515 71.6013L103.612 70.114Z" fill="#5E5E5E"/>
<path d="M81.6197 108.206L77.7172 106.718L78.5447 108.435L82.9586 110.983L84.8591 110.842L81.6197 108.206Z" fill="#5E5E5E"/>
<rect width="1.15746" height="12.6848" transform="matrix(0.997563 -0.0697722 0.0697407 0.997565 91.8379 83.0219)" fill="#5E5E5E"/>
<rect width="1.15745" height="18.2125" transform="matrix(0.766041 0.642792 -0.642783 0.766048 103.541 69.0707)" fill="#5E5E5E"/>
<rect width="1.15745" height="18.6388" transform="matrix(0.766041 0.642792 -0.642783 0.766048 92.9893 94.8519)" fill="#5E5E5E"/>
<path d="M91.3146 117.311L81.9826 133.475L73.0965 128.344L76.2279 118.124L68.9423 125.946L59.4287 120.453L68.7607 104.29L91.3146 117.311Z" fill="#8A0000"/>
<path d="M79.2331 112.34L75.9938 109.704L77.8943 109.563L82.3082 112.111L83.1357 113.828L79.2331 112.34Z" fill="#5E5E5E"/>
<path d="M76.8461 116.476L78.0937 138.246L57.3682 126.281L76.8461 116.476Z" fill="#8A0000"/>
<path d="M51.3984 138.705L70.1929 149.556L73.8101 143.291L55.0155 132.44L51.3984 138.705Z" fill="#8A0000"/>
<path d="M55.0137 132.44L70.0493 141.121L52.12 137.452L55.0137 132.44Z" fill="#5E5E5E"/>
<path d="M80.1008 110.837L74.6207 128.723L67.3505 124.526L80.1008 110.837Z" fill="#5E5E5E"/>
</svg>
