<svg width="190" height="167" viewBox="0 0 190 167" fill="none" xmlns="http://www.w3.org/2000/svg">
<path d="M187.726 78.208C189.513 81.302 189.513 85.114 187.726 88.208L145.46 161.416C143.674 164.51 140.372 166.416 136.8 166.416H52.2666C48.6939 166.416 45.3926 164.51 43.6063 161.416L1.33974 88.208C-0.44658 85.114 -0.44658 81.302 1.33974 78.208L43.6063 5.00001C45.3926 1.90599 48.6939 0 52.2666 0H136.8C140.372 0 143.674 1.90599 145.46 5.00001L187.726 78.208ZM59.208 11.1475C55.6353 11.1475 52.334 13.0535 50.5477 16.1475L14.7176 78.208C12.9313 81.302 12.9313 85.114 14.7177 88.208L50.5477 150.268C52.334 153.362 55.6353 155.268 59.208 155.268H130.869C134.442 155.268 137.743 153.362 139.529 150.268L175.36 88.208C177.146 85.114 177.146 81.302 175.36 78.2079L139.529 16.1474C137.743 13.0534 134.442 11.1475 130.869 11.1475H59.208Z" fill="#D9D9D9"/>
<path d="M11.8308 83.208L53.4348 11.1478H136.643L178.247 83.208L136.643 155.268H53.4348L11.8308 83.208Z" fill="#5E5E5E"/>
<rect x="92" width="6" height="166.42" fill="#5E5E5E"/>
<path d="M63 37.9793C63 34.1248 66.1248 31 69.9793 31H119.021C122.875 31 126 34.1248 126 37.9793V37.9793C126 41.8339 122.875 44.9587 119.021 44.9587H69.9793C66.1247 44.9587 63 41.8339 63 37.9793V37.9793Z" fill="url(#paint0_linear_111_7)"/>
<path d="M63 73.4128H119.021C122.875 73.4128 126 76.5375 126 80.3921V80.3921C126 84.2467 122.875 87.3714 119.021 87.3714H63V73.4128Z" fill="url(#paint1_linear_111_7)"/>
<path d="M69.5351 134.08C65.9259 134.08 63 131.154 63 127.545L63 39C63 34.5817 66.5817 31 71 31H76.0702V127.545C76.0702 131.154 73.1443 134.08 69.5351 134.08V134.08Z" fill="url(#paint2_linear_111_7)"/>
<path d="M63 37.9793C63 34.1248 66.1248 31 69.9793 31H119.021C122.875 31 126 34.1248 126 37.9793V37.9793C126 41.8339 122.875 44.9587 119.021 44.9587H69.9793C66.1247 44.9587 63 41.8339 63 37.9793V37.9793Z" fill="url(#paint3_linear_111_7)"/>
<path d="M63 73.4128H119.021C122.875 73.4128 126 76.5375 126 80.3921V80.3921C126 84.2467 122.875 87.3714 119.021 87.3714H63V73.4128Z" fill="url(#paint4_linear_111_7)"/>
<path d="M69.5351 134.08C65.9259 134.08 63 131.154 63 127.545L63 39C63 34.5817 66.5817 31 71 31H76.0702V127.545C76.0702 131.154 73.1443 134.08 69.5351 134.08V134.08Z" fill="url(#paint5_linear_111_7)"/>
<path d="M63 37.9793C63 34.1248 66.1248 31 69.9793 31H119.021C122.875 31 126 34.1248 126 37.9793V37.9793C126 41.8339 122.875 44.9587 119.021 44.9587H69.9793C66.1247 44.9587 63 41.8339 63 37.9793V37.9793Z" fill="url(#paint6_linear_111_7)"/>
<path d="M63 73.4128H119.021C122.875 73.4128 126 76.5375 126 80.3921V80.3921C126 84.2467 122.875 87.3714 119.021 87.3714H63V73.4128Z" fill="url(#paint7_linear_111_7)"/>
<path d="M69.5351 134.08C65.9259 134.08 63 131.154 63 127.545L63 39.0041C63 34.5859 66.5817 31.0041 71 31.0041H76.0702V127.545C76.0702 131.154 73.1443 134.08 69.5351 134.08V134.08Z" fill="url(#paint8_linear_111_7)"/>
<path d="M59.1828 34.9387L54.27 27.7255L58.743 24.679L59.3811 25.6159L55.9964 27.9211L57.4932 30.1189L60.5574 28.0319L61.1931 28.9653L58.1289 31.0523L60.2711 34.1975L59.1828 34.9387ZM65.8604 30.6801L64.6057 31.2961L63.5788 22.078L64.9444 21.4075L71.6097 27.8575L70.355 28.4735L64.9927 23.1498L64.9315 23.1798L65.8604 30.6801ZM64.5646 27.509L68.6347 25.5108L69.123 26.5054L65.0529 28.5036L64.5646 27.509ZM76.4893 19.3634C76.3262 18.9917 76.0544 18.7489 75.6739 18.6351C75.2926 18.5186 74.8632 18.5345 74.3857 18.6829C74.0439 18.7892 73.7651 18.9353 73.5492 19.1214C73.3325 19.3048 73.1841 19.5116 73.1039 19.7418C73.0256 19.9684 73.0231 20.1997 73.0964 20.4358C73.158 20.6338 73.2572 20.7904 73.3941 20.9055C73.5338 21.0198 73.6947 21.1021 73.877 21.1526C74.0612 21.1995 74.2515 21.2281 74.4481 21.2384C74.6438 21.246 74.8294 21.2448 75.0048 21.2349L75.8845 21.1936C76.1706 21.1761 76.4706 21.1795 76.7846 21.2039C77.0986 21.2283 77.4032 21.2942 77.6985 21.4018C77.9937 21.5094 78.2563 21.6747 78.4862 21.8977C78.7189 22.1199 78.8934 22.4182 79.0098 22.7926C79.1565 23.2647 79.1647 23.7217 79.0344 24.1639C78.9067 24.6051 78.6452 25.0033 78.2498 25.3582C77.8571 25.7123 77.3352 25.9905 76.6841 26.1929C76.0601 26.3868 75.4894 26.4556 74.9721 26.3992C74.4548 26.3428 74.0108 26.1729 73.6401 25.8894C73.2685 25.6033 72.9912 25.2135 72.8081 24.72L74.0696 24.328C74.1876 24.6215 74.3633 24.8421 74.5966 24.9898C74.8317 25.1338 75.0988 25.213 75.3977 25.2272C75.6985 25.2378 76.0103 25.193 76.3332 25.0926C76.6886 24.9822 76.9873 24.8283 77.2295 24.6311C77.4735 24.4303 77.6443 24.2047 77.742 23.9542C77.8388 23.7009 77.8451 23.4387 77.7608 23.1674C77.6841 22.9205 77.5507 22.7403 77.3607 22.6268C77.1735 22.5125 76.9445 22.4409 76.6737 22.412C76.4056 22.3822 76.1101 22.3744 75.7873 22.3885L74.719 22.426C73.9952 22.4516 73.3831 22.3488 72.8828 22.1175C72.3853 21.8854 72.0463 21.4791 71.8658 20.8985C71.7166 20.4183 71.7166 19.9587 71.8657 19.5197C72.0148 19.0806 72.2811 18.693 72.6645 18.3566C73.047 18.0176 73.5177 17.7612 74.0765 17.5876C74.6408 17.4122 75.1694 17.3565 75.6623 17.4205C76.1579 17.4836 76.5845 17.65 76.942 17.9197C77.2987 18.1867 77.552 18.5423 77.702 18.9865L76.4893 19.3634ZM80.8936 16.9551L80.7243 15.8343L87.4027 14.825L87.5721 15.9458L84.8796 16.3527L86.0144 23.8612L84.7167 24.0573L83.5819 16.5488L80.8936 16.9551ZM91.4288 23.1828L91.3836 14.4556L96.8551 14.4273L96.861 15.5608L92.7062 15.5823L92.72 18.2414L96.5892 18.2213L96.5951 19.3506L92.7258 19.3706L92.7397 22.0425L96.9456 22.0207L96.9515 23.1542L91.4288 23.1828ZM108.17 15.7111L106.865 24.3403L105.668 24.1593L102.239 17.1675L102.159 17.1554L101.202 23.484L99.8999 23.2871L101.205 14.658L102.41 14.8402L105.842 21.8411L105.922 21.8532L106.88 15.5161L108.17 15.7111ZM109.962 24.9602L112.599 16.6409L117.815 18.2943L117.473 19.3749L113.512 18.1193L112.708 20.6541L116.397 21.8234L116.056 22.8998L112.367 21.7306L111.56 24.2775L115.569 25.5485L115.227 26.6291L109.962 24.9602ZM117.995 27.6533L121.817 19.8074L124.614 21.1696C125.221 21.4657 125.675 21.8161 125.974 22.2209C126.275 22.6269 126.436 23.0635 126.454 23.5309C126.474 23.9957 126.367 24.4695 126.132 24.9522C125.898 25.4324 125.591 25.8059 125.211 26.0729C124.836 26.3385 124.397 26.4739 123.895 26.4791C123.396 26.4856 122.842 26.3407 122.234 26.0447L120.116 25.0127L120.612 23.9937L122.623 24.9734C123.006 25.16 123.345 25.2568 123.638 25.2639C123.934 25.2723 124.19 25.1991 124.404 25.0445C124.619 24.8898 124.797 24.6656 124.94 24.3718C125.085 24.0756 125.152 23.7909 125.143 23.5178C125.136 23.246 125.04 22.9935 124.853 22.7604C124.67 22.526 124.383 22.3136 123.993 22.1233L122.506 21.3992L119.179 28.23L117.995 27.6533ZM123.593 26.0001L123.807 30.4842L122.458 29.8273L122.282 25.3619L123.593 26.0001ZM133.548 29.0258C133.736 28.6659 133.755 28.3019 133.605 27.934C133.457 27.5638 133.176 27.239 132.761 26.9597C132.465 26.7597 132.176 26.6338 131.896 26.582C131.617 26.5279 131.363 26.5417 131.133 26.6233C130.907 26.7042 130.726 26.8471 130.587 27.0521C130.472 27.2241 130.412 27.3995 130.408 27.5784C130.406 27.7588 130.443 27.9359 130.517 28.1096C130.596 28.2825 130.693 28.4488 130.808 28.6085C130.925 28.7659 131.042 28.9099 131.159 29.0404L131.743 29.7004C131.935 29.9124 132.121 30.1485 132.298 30.4086C132.476 30.6687 132.615 30.9475 132.716 31.245C132.817 31.5426 132.853 31.8508 132.823 32.1698C132.795 32.4903 132.672 32.8132 132.453 33.1384C132.177 33.5483 131.826 33.841 131.399 34.0162C130.975 34.193 130.501 34.2384 129.977 34.1524C129.455 34.068 128.911 33.8353 128.346 33.4544C127.804 33.0894 127.393 32.6875 127.113 32.2489C126.833 31.8102 126.687 31.3577 126.676 30.8911C126.666 30.4223 126.797 29.962 127.067 29.5102L128.162 30.2482C128.007 30.524 127.945 30.7991 127.976 31.0735C128.011 31.347 128.117 31.6048 128.293 31.8468C128.473 32.0879 128.703 32.303 128.984 32.4918C129.292 32.6997 129.599 32.8363 129.905 32.9016C130.214 32.9661 130.497 32.958 130.753 32.8773C131.012 32.7942 131.22 32.6349 131.379 32.3993C131.523 32.1849 131.58 31.968 131.55 31.7489C131.521 31.5313 131.434 31.3078 131.287 31.0786C131.142 30.851 130.963 30.6158 130.75 30.3728L130.052 29.5635C129.579 29.0151 129.275 28.4736 129.143 27.9387C129.012 27.4054 129.116 26.8867 129.456 26.3825C129.737 25.9654 130.095 25.6776 130.531 25.5189C130.967 25.3602 131.436 25.3251 131.938 25.4133C132.442 25.4993 132.936 25.7057 133.422 26.0327C133.912 26.3628 134.286 26.74 134.545 27.1644C134.806 27.5903 134.944 28.0271 134.957 28.4747C134.972 28.92 134.854 29.3402 134.601 29.7353L133.548 29.0258Z" fill="#D9D9D9"/>
<path d="M55.1704 138.926L59.8901 131.585L64.4925 134.544L63.8795 135.497L60.3847 133.25L58.9466 135.487L62.2013 137.58L61.5906 138.53L58.3359 136.437L56.891 138.685L60.4288 140.959L59.8158 141.913L55.1704 138.926ZM70.4783 140.107C70.6038 139.721 70.5623 139.359 70.3539 139.021C70.1467 138.68 69.8155 138.406 69.3603 138.2C69.0343 138.052 68.7289 137.975 68.444 137.971C68.1602 137.963 67.9118 138.019 67.6988 138.138C67.4896 138.255 67.3338 138.426 67.2316 138.651C67.1458 138.84 67.1158 139.023 67.1415 139.2C67.1697 139.378 67.2351 139.546 67.3377 139.705C67.444 139.863 67.5671 140.011 67.707 140.149C67.8481 140.285 67.9875 140.408 68.125 140.517L68.8093 141.071C69.0346 141.248 69.2564 141.451 69.4746 141.678C69.6929 141.905 69.8764 142.157 70.0253 142.433C70.1742 142.71 70.2603 143.008 70.2837 143.328C70.3096 143.648 70.2415 143.987 70.0794 144.344C69.8749 144.794 69.577 145.141 69.1856 145.384C68.7968 145.629 68.3367 145.752 67.8053 145.754C67.2765 145.757 66.7018 145.618 66.081 145.336C65.4861 145.066 65.0143 144.738 64.6655 144.351C64.3167 143.965 64.0982 143.543 64.0099 143.085C63.9228 142.624 63.975 142.148 64.1665 141.658L65.3693 142.205C65.2621 142.502 65.2466 142.784 65.3226 143.049C65.4023 143.313 65.5491 143.55 65.7629 143.759C65.9804 143.967 66.2431 144.141 66.5509 144.281C66.8897 144.435 67.2151 144.519 67.5271 144.533C67.8429 144.545 68.1205 144.49 68.3601 144.368C68.6008 144.243 68.7799 144.052 68.8974 143.793C69.0044 143.558 69.0246 143.335 68.9583 143.123C68.8945 142.913 68.7712 142.708 68.5882 142.506C68.4078 142.305 68.1924 142.103 67.942 141.899L67.1194 141.216C66.5618 140.754 66.1732 140.27 65.9534 139.765C65.7363 139.26 65.7535 138.731 66.0049 138.178C66.2129 137.72 66.5186 137.377 66.922 137.148C67.3254 136.92 67.7821 136.807 68.292 136.811C68.8032 136.812 69.3252 136.934 69.858 137.176C70.396 137.42 70.8277 137.731 71.1532 138.106C71.4813 138.483 71.6891 138.891 71.7767 139.33C71.8654 139.767 71.818 140.201 71.6345 140.632L70.4783 140.107ZM74.593 140.6L74.8996 139.509L81.4021 141.336L81.0955 142.427L78.474 141.691L76.42 149.002L75.1564 148.647L77.2104 141.336L74.593 140.6ZM85.8379 150.935L83.0327 150.598L84.0729 141.933L86.9669 142.281C87.8159 142.383 88.5242 142.644 89.0918 143.064C89.6598 143.481 90.0672 144.032 90.314 144.717C90.564 145.399 90.635 146.19 90.527 147.09C90.4186 147.993 90.1605 148.749 89.7526 149.358C89.3476 149.967 88.8137 150.41 88.1512 150.685C87.489 150.957 86.7179 151.041 85.8379 150.935ZM84.4772 149.613L85.9031 149.784C86.5631 149.863 87.1266 149.805 87.5936 149.609C88.061 149.411 88.4317 149.088 88.7057 148.64C88.9802 148.189 89.1585 147.621 89.2408 146.936C89.3224 146.256 89.283 145.666 89.1227 145.166C88.9652 144.667 88.6883 144.269 88.2918 143.972C87.8953 143.675 87.3812 143.489 86.7494 143.413L85.2431 143.233L84.4772 149.613ZM94.0775 151.749C93.8445 151.748 93.6445 151.665 93.4775 151.5C93.3105 151.331 93.2275 151.129 93.2283 150.894C93.2292 150.661 93.3137 150.462 93.4819 150.298C93.6502 150.131 93.8508 150.048 94.0837 150.049C94.3167 150.05 94.5166 150.134 94.6836 150.302C94.8506 150.468 94.9337 150.667 94.9329 150.9C94.9323 151.056 94.892 151.199 94.812 151.33C94.7348 151.457 94.6321 151.559 94.504 151.636C94.3759 151.712 94.2337 151.75 94.0775 151.749ZM103.716 151.106L103.548 150.166L105.917 146.635C106.169 146.253 106.374 145.92 106.531 145.638C106.691 145.353 106.801 145.089 106.862 144.848C106.923 144.606 106.93 144.359 106.886 144.107C106.835 143.822 106.724 143.588 106.552 143.405C106.381 143.219 106.169 143.091 105.917 143.021C105.664 142.948 105.392 142.937 105.101 142.989C104.794 143.044 104.537 143.155 104.33 143.321C104.123 143.488 103.978 143.697 103.896 143.949C103.814 144.2 103.801 144.479 103.856 144.787L102.618 145.008C102.525 144.485 102.563 144.006 102.734 143.572C102.904 143.137 103.18 142.775 103.561 142.485C103.942 142.192 104.399 141.997 104.933 141.902C105.473 141.806 105.968 141.828 106.417 141.97C106.869 142.109 107.244 142.342 107.542 142.67C107.84 142.995 108.03 143.388 108.112 143.849C108.169 144.168 108.165 144.491 108.099 144.817C108.036 145.143 107.891 145.519 107.664 145.947C107.437 146.371 107.109 146.896 106.681 147.52L105.293 149.612L105.304 149.675L109.172 148.985L109.37 150.096L103.716 151.106ZM116.336 148.323C115.697 148.534 115.095 148.549 114.53 148.368C113.965 148.186 113.456 147.816 113.002 147.258C112.548 146.701 112.169 145.972 111.867 145.073C111.566 144.176 111.428 143.37 111.454 142.654C111.483 141.937 111.667 141.335 112.007 140.849C112.35 140.362 112.838 140.012 113.471 139.8C114.104 139.587 114.703 139.573 115.268 139.757C115.833 139.939 116.342 140.308 116.795 140.863C117.25 141.414 117.629 142.138 117.93 143.035C118.233 143.937 118.372 144.747 118.347 145.466C118.321 146.182 118.138 146.785 117.799 147.273C117.459 147.759 116.971 148.109 116.336 148.323ZM115.973 147.244C116.533 147.056 116.879 146.635 117.01 145.983C117.144 145.329 117.038 144.486 116.69 143.452C116.459 142.765 116.191 142.209 115.887 141.784C115.584 141.355 115.256 141.064 114.905 140.909C114.555 140.751 114.196 140.734 113.827 140.858C113.269 141.045 112.924 141.467 112.791 142.123C112.658 142.779 112.763 143.624 113.107 144.656C113.339 145.345 113.606 145.904 113.909 146.333C114.214 146.758 114.541 147.048 114.89 147.204C115.238 147.356 115.599 147.37 115.973 147.244ZM122.08 136.436L125.96 144.254L124.777 144.841L121.484 138.207L121.438 138.23L120.174 140.379L119.613 139.249L120.931 137.006L122.08 136.436ZM132.57 140.547C132.059 140.88 131.549 141.087 131.041 141.166C130.536 141.245 130.072 141.201 129.649 141.036C129.226 140.87 128.887 140.589 128.632 140.193C128.428 139.885 128.306 139.559 128.266 139.216C128.226 138.869 128.262 138.536 128.372 138.216C128.481 137.894 128.658 137.619 128.903 137.392L128.875 137.349C128.454 137.498 128.035 137.493 127.619 137.333C127.203 137.174 126.869 136.897 126.615 136.502C126.369 136.13 126.251 135.733 126.26 135.31C126.27 134.883 126.397 134.47 126.639 134.071C126.881 133.673 127.227 133.327 127.677 133.034C128.122 132.744 128.575 132.571 129.037 132.514C129.499 132.454 129.928 132.505 130.323 132.669C130.716 132.83 131.034 133.095 131.278 133.465C131.532 133.859 131.646 134.28 131.622 134.726C131.598 135.173 131.437 135.556 131.139 135.875L131.167 135.917C131.472 135.787 131.791 135.738 132.125 135.772C132.46 135.801 132.778 135.904 133.079 136.081C133.381 136.254 133.634 136.494 133.838 136.802C134.093 137.198 134.211 137.624 134.191 138.077C134.171 138.531 134.022 138.974 133.744 139.406C133.469 139.836 133.077 140.217 132.57 140.547ZM131.982 139.643C132.284 139.447 132.514 139.226 132.67 138.982C132.825 138.735 132.904 138.482 132.907 138.222C132.909 137.96 132.832 137.705 132.674 137.458C132.506 137.205 132.293 137.024 132.035 136.914C131.779 136.802 131.504 136.763 131.21 136.795C130.916 136.827 130.626 136.936 130.34 137.123C130.052 137.31 129.832 137.533 129.682 137.79C129.531 138.048 129.455 138.316 129.453 138.595C129.452 138.874 129.535 139.14 129.703 139.393C129.861 139.64 130.059 139.816 130.297 139.922C130.536 140.024 130.801 140.053 131.092 140.01C131.38 139.964 131.677 139.842 131.982 139.643ZM129.765 136.241C130.008 136.082 130.192 135.893 130.316 135.673C130.441 135.453 130.5 135.221 130.494 134.978C130.49 134.733 130.414 134.493 130.264 134.258C130.113 134.031 129.928 133.867 129.709 133.765C129.493 133.662 129.26 133.625 129.012 133.655C128.762 133.682 128.513 133.776 128.265 133.937C128.013 134.102 127.823 134.294 127.694 134.513C127.567 134.728 127.506 134.956 127.513 135.195C127.52 135.435 127.599 135.668 127.75 135.895C127.9 136.13 128.085 136.299 128.305 136.403C128.526 136.507 128.761 136.547 129.013 136.522C129.267 136.496 129.518 136.402 129.765 136.241Z" fill="#D9D9D9"/>
<defs>
<linearGradient id="paint0_linear_111_7" x1="63" y1="37.9793" x2="126" y2="37.9793" gradientUnits="userSpaceOnUse">
<stop offset="0.9" stop-color="#8A0000"/>
</linearGradient>
<linearGradient id="paint1_linear_111_7" x1="63" y1="80.3921" x2="126" y2="80.3921" gradientUnits="userSpaceOnUse">
<stop offset="0.8" stop-color="#8A0000"/>
</linearGradient>
<linearGradient id="paint2_linear_111_7" x1="63" y1="82.5398" x2="76.0701" y2="82.5398" gradientUnits="userSpaceOnUse">
<stop offset="1" stop-color="#8A0000"/>
</linearGradient>
<linearGradient id="paint3_linear_111_7" x1="63" y1="37.9793" x2="126" y2="37.9793" gradientUnits="userSpaceOnUse">
<stop offset="0.8" stop-color="#8A0000"/>
</linearGradient>
<linearGradient id="paint4_linear_111_7" x1="63" y1="80.3921" x2="126" y2="80.3921" gradientUnits="userSpaceOnUse">
<stop offset="0.8" stop-color="#8A0000"/>
</linearGradient>
<linearGradient id="paint5_linear_111_7" x1="63" y1="82.5398" x2="76.0701" y2="82.5398" gradientUnits="userSpaceOnUse">
<stop offset="1" stop-color="#8A0000"/>
</linearGradient>
<linearGradient id="paint6_linear_111_7" x1="63" y1="37.9793" x2="126" y2="37.9793" gradientUnits="userSpaceOnUse">
<stop offset="0.8" stop-color="#8A0000"/>
</linearGradient>
<linearGradient id="paint7_linear_111_7" x1="63" y1="80.3921" x2="126" y2="80.3921" gradientUnits="userSpaceOnUse">
<stop offset="0.8" stop-color="#8A0000"/>
</linearGradient>
<linearGradient id="paint8_linear_111_7" x1="63" y1="82.5419" x2="76.0701" y2="82.5419" gradientUnits="userSpaceOnUse">
<stop offset="1" stop-color="#8A0000"/>
</linearGradient>
</defs>
</svg>
