<svg width="1200" height="750" viewBox="0 0 1200 750" fill="none" xmlns="http://www.w3.org/2000/svg">
<rect width="1200" height="750" fill="url(#paint0_radial_51_58)"/>
<g filter="url(#filter0_d_51_58)">
<path d="M438.774 139C447.611 139 454.774 146.163 454.774 155V218.991C452.174 216.339 449.484 213.775 446.706 211.309C418.458 186.23 381.27 171 340.524 171C252.159 171 180.524 242.634 180.524 331C180.524 419.366 252.159 491 340.524 491C385.277 491 425.736 472.625 454.774 443.01V506.649C454.774 515.486 447.611 522.649 438.774 522.649H242.512C236.796 522.649 231.513 519.6 228.655 514.649L127.144 338.824C124.286 333.874 124.285 327.775 127.144 322.824L228.655 147C231.513 142.05 236.796 139 242.512 139H438.774Z" fill="url(#paint1_linear_51_58)"/>
<path d="M438.774 139C447.611 139 454.774 146.163 454.774 155V218.991C452.174 216.339 449.484 213.775 446.706 211.309C418.458 186.23 381.27 171 340.524 171C252.159 171 180.524 242.634 180.524 331C180.524 419.366 252.159 491 340.524 491C385.277 491 425.736 472.625 454.774 443.01V506.649C454.774 515.486 447.611 522.649 438.774 522.649H242.512C236.796 522.649 231.513 519.6 228.655 514.649L127.144 338.824C124.286 333.874 124.285 327.775 127.144 322.824L228.655 147C231.513 142.05 236.796 139 242.512 139H438.774Z" fill="url(#paint2_linear_51_58)" fill-opacity="0.2"/>
</g>
<g filter="url(#filter1_d_51_58)">
<path d="M438.774 139C447.611 139 454.774 146.163 454.774 155V218.991C452.174 216.339 449.484 213.775 446.706 211.309C418.458 186.23 381.27 171 340.524 171C252.159 171 180.524 242.634 180.524 331C180.524 419.366 252.159 491 340.524 491C385.277 491 425.736 472.625 454.774 443.01V506.649C454.774 515.486 447.611 522.649 438.774 522.649H242.512C236.796 522.649 231.513 519.6 228.655 514.649L127.144 338.824C124.286 333.874 124.285 327.775 127.144 322.824L228.655 147C231.513 142.05 236.796 139 242.512 139H438.774Z" fill="url(#paint3_linear_51_58)"/>
<path d="M438.774 139C447.611 139 454.774 146.163 454.774 155V218.991C452.174 216.339 449.484 213.775 446.706 211.309C418.458 186.23 381.27 171 340.524 171C252.159 171 180.524 242.634 180.524 331C180.524 419.366 252.159 491 340.524 491C385.277 491 425.736 472.625 454.774 443.01V506.649C454.774 515.486 447.611 522.649 438.774 522.649H242.512C236.796 522.649 231.513 519.6 228.655 514.649L127.144 338.824C124.286 333.874 124.285 327.775 127.144 322.824L228.655 147C231.513 142.05 236.796 139 242.512 139H438.774Z" fill="url(#paint4_linear_51_58)" fill-opacity="0.2"/>
</g>
<g filter="url(#filter2_d_51_58)">
<path d="M760.524 139C751.688 139 744.524 146.163 744.524 155V218.991C747.125 216.339 749.814 213.775 752.593 211.309C780.841 186.23 818.029 171 858.774 171C947.14 171 1018.77 242.634 1018.77 331C1018.77 419.366 947.14 491 858.774 491C814.022 491 773.562 472.625 744.524 443.01V506.649C744.524 515.486 751.688 522.649 760.524 522.649H956.787C962.503 522.649 967.785 519.6 970.644 514.649L1072.16 338.824C1075.01 333.874 1075.01 327.775 1072.16 322.824L970.644 147C967.785 142.05 962.503 139 956.787 139H760.524Z" fill="url(#paint5_linear_51_58)"/>
<path d="M760.524 139C751.688 139 744.524 146.163 744.524 155V218.991C747.125 216.339 749.814 213.775 752.593 211.309C780.841 186.23 818.029 171 858.774 171C947.14 171 1018.77 242.634 1018.77 331C1018.77 419.366 947.14 491 858.774 491C814.022 491 773.562 472.625 744.524 443.01V506.649C744.524 515.486 751.688 522.649 760.524 522.649H956.787C962.503 522.649 967.785 519.6 970.644 514.649L1072.16 338.824C1075.01 333.874 1075.01 327.775 1072.16 322.824L970.644 147C967.785 142.05 962.503 139 956.787 139H760.524Z" fill="url(#paint6_linear_51_58)" fill-opacity="0.2"/>
</g>
<g filter="url(#filter3_d_51_58)">
<path d="M760.524 139C751.688 139 744.524 146.163 744.524 155V218.991C747.125 216.339 749.814 213.775 752.593 211.309C780.841 186.23 818.029 171 858.774 171C947.14 171 1018.77 242.634 1018.77 331C1018.77 419.366 947.14 491 858.774 491C814.022 491 773.562 472.625 744.524 443.01V506.649C744.524 515.486 751.688 522.649 760.524 522.649H956.787C962.503 522.649 967.785 519.6 970.644 514.649L1072.16 338.824C1075.01 333.874 1075.01 327.775 1072.16 322.824L970.644 147C967.785 142.05 962.503 139 956.787 139H760.524Z" fill="url(#paint7_linear_51_58)"/>
<path d="M760.524 139C751.688 139 744.524 146.163 744.524 155V218.991C747.125 216.339 749.814 213.775 752.593 211.309C780.841 186.23 818.029 171 858.774 171C947.14 171 1018.77 242.634 1018.77 331C1018.77 419.366 947.14 491 858.774 491C814.022 491 773.562 472.625 744.524 443.01V506.649C744.524 515.486 751.688 522.649 760.524 522.649H956.787C962.503 522.649 967.785 519.6 970.644 514.649L1072.16 338.824C1075.01 333.874 1075.01 327.775 1072.16 322.824L970.644 147C967.785 142.05 962.503 139 956.787 139H760.524Z" fill="url(#paint8_linear_51_58)" fill-opacity="0.2"/>
</g>
<g filter="url(#filter4_d_51_58)">
<path d="M464.524 155C464.524 146.163 471.688 139 480.524 139H722.524C729.152 139 734.524 144.373 734.524 151V179C734.524 185.627 729.152 191 722.524 191H480.524C471.688 191 464.524 183.837 464.524 175V155Z" fill="url(#paint9_linear_51_58)"/>
<path d="M464.524 297H722.524C729.152 297 734.524 302.373 734.524 309V337C734.524 343.627 729.152 349 722.524 349H464.524V297Z" fill="url(#paint10_linear_51_58)"/>
<path d="M480.524 523C471.688 523 464.524 515.837 464.524 507V155C464.524 146.163 471.688 139 480.524 139H516.524V507C516.524 515.837 509.361 523 500.524 523H480.524Z" fill="url(#paint11_linear_51_58)"/>
</g>
<g filter="url(#filter5_d_51_58)">
<path d="M464.524 155C464.524 146.163 471.688 139 480.524 139H722.524C729.152 139 734.524 144.373 734.524 151V179C734.524 185.627 729.152 191 722.524 191H480.524C471.688 191 464.524 183.837 464.524 175V155Z" fill="url(#paint12_linear_51_58)"/>
<path d="M464.524 297H722.524C729.152 297 734.524 302.373 734.524 309V337C734.524 343.627 729.152 349 722.524 349H464.524V297Z" fill="url(#paint13_linear_51_58)"/>
<path d="M480.524 523C471.688 523 464.524 515.837 464.524 507V155C464.524 146.163 471.688 139 480.524 139H516.524V507C516.524 515.837 509.361 523 500.524 523H480.524Z" fill="url(#paint14_linear_51_58)"/>
</g>
<g filter="url(#filter6_d_51_58)">
<path d="M464.524 155C464.524 146.163 471.688 139 480.524 139H722.524C729.152 139 734.524 144.373 734.524 151V179C734.524 185.627 729.152 191 722.524 191H480.524C471.688 191 464.524 183.837 464.524 175V155Z" fill="url(#paint15_linear_51_58)"/>
<path d="M464.524 297H722.524C729.152 297 734.524 302.373 734.524 309V337C734.524 343.627 729.152 349 722.524 349H464.524V297Z" fill="url(#paint16_linear_51_58)"/>
<path d="M480.524 523C471.688 523 464.524 515.837 464.524 507V155C464.524 146.163 471.688 139 480.524 139H516.524V507C516.524 515.837 509.361 523 500.524 523H480.524Z" fill="url(#paint17_linear_51_58)"/>
</g>
<g filter="url(#filter7_d_51_58)">
<rect x="233.524" y="540" width="732" height="100" rx="12" fill="url(#paint18_radial_51_58)"/>
</g>
<g filter="url(#filter8_d_51_58)">
<rect x="233.524" y="540" width="732" height="100" rx="12" fill="url(#paint19_radial_51_58)"/>
</g>
<path d="M256.001 634L270.731 545.273H323.933L322.373 554.804H279.916L274.89 584.784H313.362L311.802 594.315H273.331L266.745 634H256.001ZM320.774 634H309.509L356.819 545.273H367.91L385.759 634H374.495L360.458 559.31H359.765L320.774 634ZM330.652 599.341H376.055L374.495 608.872H329.092L330.652 599.341ZM459.63 568.148C459.63 563.382 458.056 559.772 454.908 557.317C451.76 554.833 447.499 553.591 442.127 553.591C438.199 553.591 434.661 554.226 431.513 555.497C428.365 556.768 425.794 558.515 423.801 560.739C421.808 562.963 420.581 565.491 420.119 568.321C419.743 570.689 419.989 572.726 420.855 574.43C421.722 576.105 422.949 577.506 424.538 578.632C426.155 579.73 427.888 580.639 429.737 581.362C431.585 582.055 433.289 582.618 434.849 583.051L443.514 585.477C445.68 586.084 448.092 586.921 450.749 587.99C453.406 589.059 455.89 590.517 458.2 592.366C460.511 594.185 462.273 596.525 463.486 599.384C464.728 602.244 465.002 605.753 464.309 609.912C463.5 614.706 461.522 619.039 458.374 622.909C455.254 626.779 451.124 629.855 445.983 632.137C440.871 634.419 434.907 635.56 428.09 635.56C421.736 635.56 416.393 634.534 412.061 632.484C407.757 630.433 404.58 627.574 402.529 623.906C400.508 620.237 399.728 615.977 400.19 611.125H411.281C410.992 614.475 411.656 617.248 413.274 619.443C414.891 621.609 417.144 623.227 420.032 624.295C422.92 625.335 426.126 625.855 429.65 625.855C433.751 625.855 437.535 625.191 441.001 623.862C444.496 622.505 447.384 620.627 449.666 618.23C451.976 615.804 453.392 612.973 453.911 609.739C454.431 606.793 454.027 604.395 452.698 602.547C451.37 600.698 449.449 599.196 446.936 598.041C444.423 596.886 441.665 595.875 438.661 595.009L428.264 591.889C421.678 589.896 416.667 587.051 413.23 583.354C409.822 579.657 408.595 574.82 409.548 568.841C410.414 563.873 412.508 559.541 415.83 555.844C419.151 552.118 423.267 549.23 428.177 547.179C433.087 545.099 438.373 544.06 444.034 544.06C449.752 544.06 454.648 545.099 458.72 547.179C462.793 549.23 465.825 552.075 467.818 555.714C469.811 559.324 470.548 563.469 470.028 568.148H459.63ZM486.917 554.804L488.476 545.273H555.022L553.462 554.804H525.562L512.391 634H501.647L514.817 554.804H486.917ZM557.484 634L572.214 545.273H625.762L624.203 554.804H581.399L576.373 584.784H616.404L614.845 594.315H574.814L569.788 624.469H613.285L611.726 634H557.484ZM716.096 545.273L701.366 634H690.968L654.23 564.335H653.363L641.752 634H631.008L645.738 545.273H656.136L693.048 615.111H693.914L705.525 545.273H716.096ZM723.476 634L738.206 545.273H791.754L790.194 554.804H747.39L742.365 584.784H782.396L780.836 594.315H740.805L735.779 624.469H779.277L777.717 634H723.476ZM797 634L811.73 545.273H841.71C848.642 545.273 854.129 546.442 858.173 548.782C862.245 551.121 865.004 554.342 866.448 558.443C867.921 562.545 868.224 567.223 867.358 572.48C866.491 577.679 864.643 582.3 861.812 586.344C859.01 590.387 855.198 593.564 850.375 595.875C845.58 598.186 839.746 599.341 832.872 599.341H808.61L810.343 589.636H834.258C838.995 589.636 842.923 588.943 846.042 587.557C849.162 586.17 851.588 584.192 853.321 581.621C855.054 579.051 856.209 576.004 856.787 572.48C857.364 568.899 857.205 565.794 856.31 563.165C855.443 560.508 853.667 558.458 850.981 557.013C848.324 555.54 844.598 554.804 839.804 554.804H820.914L807.744 634H797ZM845.349 594.142L860.599 634H848.122L833.218 594.142H845.349ZM935.087 568.148C935.087 563.382 933.513 559.772 930.365 557.317C927.217 554.833 922.956 553.591 917.584 553.591C913.656 553.591 910.118 554.226 906.97 555.497C903.822 556.768 901.251 558.515 899.258 560.739C897.265 562.963 896.038 565.491 895.576 568.321C895.2 570.689 895.446 572.726 896.312 574.43C897.179 576.105 898.406 577.506 899.995 578.632C901.612 579.73 903.345 580.639 905.194 581.362C907.042 582.055 908.746 582.618 910.306 583.051L918.971 585.477C921.137 586.084 923.548 586.921 926.206 587.99C928.863 589.059 931.347 590.517 933.657 592.366C935.968 594.185 937.73 596.525 938.943 599.384C940.185 602.244 940.459 605.753 939.766 609.912C938.957 614.706 936.979 619.039 933.831 622.909C930.711 626.779 926.581 629.855 921.44 632.137C916.328 634.419 910.364 635.56 903.547 635.56C897.193 635.56 891.85 634.534 887.517 632.484C883.214 630.433 880.037 627.574 877.986 623.906C875.964 620.237 875.185 615.977 875.647 611.125H886.738C886.449 614.475 887.113 617.248 888.73 619.443C890.348 621.609 892.601 623.227 895.489 624.295C898.377 625.335 901.583 625.855 905.107 625.855C909.208 625.855 912.992 625.191 916.458 623.862C919.953 622.505 922.841 620.627 925.123 618.23C927.433 615.804 928.848 612.973 929.368 609.739C929.888 606.793 929.484 604.395 928.155 602.547C926.827 600.698 924.906 599.196 922.393 598.041C919.88 596.886 917.122 595.875 914.118 595.009L903.721 591.889C897.135 589.896 892.124 587.051 888.687 583.354C885.279 579.657 884.052 574.82 885.005 568.841C885.871 563.873 887.965 559.541 891.287 555.844C894.608 552.118 898.724 549.23 903.634 547.179C908.544 545.099 913.829 544.06 919.49 544.06C925.209 544.06 930.105 545.099 934.177 547.179C938.25 549.23 941.282 552.075 943.275 555.714C945.268 559.324 946.005 563.469 945.485 568.148H935.087Z" fill="url(#paint20_linear_51_58)"/>
<defs>
<filter id="filter0_d_51_58" x="121" y="139" width="337.774" height="393.649" filterUnits="userSpaceOnUse" color-interpolation-filters="sRGB">
<feFlood flood-opacity="0" result="BackgroundImageFix"/>
<feColorMatrix in="SourceAlpha" type="matrix" values="0 0 0 0 0 0 0 0 0 0 0 0 0 0 0 0 0 0 127 0" result="hardAlpha"/>
<feOffset dy="6"/>
<feGaussianBlur stdDeviation="2"/>
<feComposite in2="hardAlpha" operator="out"/>
<feColorMatrix type="matrix" values="0 0 0 0 0 0 0 0 0 0 0 0 0 0 0 0 0 0 0.25 0"/>
<feBlend mode="normal" in2="BackgroundImageFix" result="effect1_dropShadow_51_58"/>
<feBlend mode="normal" in="SourceGraphic" in2="effect1_dropShadow_51_58" result="shape"/>
</filter>
<filter id="filter1_d_51_58" x="121" y="139" width="337.774" height="393.649" filterUnits="userSpaceOnUse" color-interpolation-filters="sRGB">
<feFlood flood-opacity="0" result="BackgroundImageFix"/>
<feColorMatrix in="SourceAlpha" type="matrix" values="0 0 0 0 0 0 0 0 0 0 0 0 0 0 0 0 0 0 127 0" result="hardAlpha"/>
<feOffset dy="6"/>
<feGaussianBlur stdDeviation="2"/>
<feComposite in2="hardAlpha" operator="out"/>
<feColorMatrix type="matrix" values="0 0 0 0 0 0 0 0 0 0 0 0 0 0 0 0 0 0 0.25 0"/>
<feBlend mode="normal" in2="BackgroundImageFix" result="effect1_dropShadow_51_58"/>
<feBlend mode="normal" in="SourceGraphic" in2="effect1_dropShadow_51_58" result="shape"/>
</filter>
<filter id="filter2_d_51_58" x="740.524" y="139" width="337.774" height="393.649" filterUnits="userSpaceOnUse" color-interpolation-filters="sRGB">
<feFlood flood-opacity="0" result="BackgroundImageFix"/>
<feColorMatrix in="SourceAlpha" type="matrix" values="0 0 0 0 0 0 0 0 0 0 0 0 0 0 0 0 0 0 127 0" result="hardAlpha"/>
<feOffset dy="6"/>
<feGaussianBlur stdDeviation="2"/>
<feComposite in2="hardAlpha" operator="out"/>
<feColorMatrix type="matrix" values="0 0 0 0 0 0 0 0 0 0 0 0 0 0 0 0 0 0 0.25 0"/>
<feBlend mode="normal" in2="BackgroundImageFix" result="effect1_dropShadow_51_58"/>
<feBlend mode="normal" in="SourceGraphic" in2="effect1_dropShadow_51_58" result="shape"/>
</filter>
<filter id="filter3_d_51_58" x="740.524" y="139" width="337.774" height="393.649" filterUnits="userSpaceOnUse" color-interpolation-filters="sRGB">
<feFlood flood-opacity="0" result="BackgroundImageFix"/>
<feColorMatrix in="SourceAlpha" type="matrix" values="0 0 0 0 0 0 0 0 0 0 0 0 0 0 0 0 0 0 127 0" result="hardAlpha"/>
<feOffset dy="6"/>
<feGaussianBlur stdDeviation="2"/>
<feComposite in2="hardAlpha" operator="out"/>
<feColorMatrix type="matrix" values="0 0 0 0 0 0 0 0 0 0 0 0 0 0 0 0 0 0 0.25 0"/>
<feBlend mode="normal" in2="BackgroundImageFix" result="effect1_dropShadow_51_58"/>
<feBlend mode="normal" in="SourceGraphic" in2="effect1_dropShadow_51_58" result="shape"/>
</filter>
<filter id="filter4_d_51_58" x="460.524" y="139" width="278" height="394" filterUnits="userSpaceOnUse" color-interpolation-filters="sRGB">
<feFlood flood-opacity="0" result="BackgroundImageFix"/>
<feColorMatrix in="SourceAlpha" type="matrix" values="0 0 0 0 0 0 0 0 0 0 0 0 0 0 0 0 0 0 127 0" result="hardAlpha"/>
<feOffset dy="6"/>
<feGaussianBlur stdDeviation="2"/>
<feComposite in2="hardAlpha" operator="out"/>
<feColorMatrix type="matrix" values="0 0 0 0 0 0 0 0 0 0 0 0 0 0 0 0 0 0 0.25 0"/>
<feBlend mode="normal" in2="BackgroundImageFix" result="effect1_dropShadow_51_58"/>
<feBlend mode="normal" in="SourceGraphic" in2="effect1_dropShadow_51_58" result="shape"/>
</filter>
<filter id="filter5_d_51_58" x="460.524" y="139" width="278" height="394" filterUnits="userSpaceOnUse" color-interpolation-filters="sRGB">
<feFlood flood-opacity="0" result="BackgroundImageFix"/>
<feColorMatrix in="SourceAlpha" type="matrix" values="0 0 0 0 0 0 0 0 0 0 0 0 0 0 0 0 0 0 127 0" result="hardAlpha"/>
<feOffset dy="6"/>
<feGaussianBlur stdDeviation="2"/>
<feComposite in2="hardAlpha" operator="out"/>
<feColorMatrix type="matrix" values="0 0 0 0 0 0 0 0 0 0 0 0 0 0 0 0 0 0 0.25 0"/>
<feBlend mode="normal" in2="BackgroundImageFix" result="effect1_dropShadow_51_58"/>
<feBlend mode="normal" in="SourceGraphic" in2="effect1_dropShadow_51_58" result="shape"/>
</filter>
<filter id="filter6_d_51_58" x="460.524" y="139" width="278" height="394" filterUnits="userSpaceOnUse" color-interpolation-filters="sRGB">
<feFlood flood-opacity="0" result="BackgroundImageFix"/>
<feColorMatrix in="SourceAlpha" type="matrix" values="0 0 0 0 0 0 0 0 0 0 0 0 0 0 0 0 0 0 127 0" result="hardAlpha"/>
<feOffset dy="6"/>
<feGaussianBlur stdDeviation="2"/>
<feComposite in2="hardAlpha" operator="out"/>
<feColorMatrix type="matrix" values="0 0 0 0 0 0 0 0 0 0 0 0 0 0 0 0 0 0 0.25 0"/>
<feBlend mode="normal" in2="BackgroundImageFix" result="effect1_dropShadow_51_58"/>
<feBlend mode="normal" in="SourceGraphic" in2="effect1_dropShadow_51_58" result="shape"/>
</filter>
<filter id="filter7_d_51_58" x="229.524" y="540" width="740" height="108" filterUnits="userSpaceOnUse" color-interpolation-filters="sRGB">
<feFlood flood-opacity="0" result="BackgroundImageFix"/>
<feColorMatrix in="SourceAlpha" type="matrix" values="0 0 0 0 0 0 0 0 0 0 0 0 0 0 0 0 0 0 127 0" result="hardAlpha"/>
<feOffset dy="4"/>
<feGaussianBlur stdDeviation="2"/>
<feComposite in2="hardAlpha" operator="out"/>
<feColorMatrix type="matrix" values="0 0 0 0 0 0 0 0 0 0 0 0 0 0 0 0 0 0 0.25 0"/>
<feBlend mode="normal" in2="BackgroundImageFix" result="effect1_dropShadow_51_58"/>
<feBlend mode="normal" in="SourceGraphic" in2="effect1_dropShadow_51_58" result="shape"/>
</filter>
<filter id="filter8_d_51_58" x="229.524" y="540" width="740" height="108" filterUnits="userSpaceOnUse" color-interpolation-filters="sRGB">
<feFlood flood-opacity="0" result="BackgroundImageFix"/>
<feColorMatrix in="SourceAlpha" type="matrix" values="0 0 0 0 0 0 0 0 0 0 0 0 0 0 0 0 0 0 127 0" result="hardAlpha"/>
<feOffset dy="4"/>
<feGaussianBlur stdDeviation="2"/>
<feComposite in2="hardAlpha" operator="out"/>
<feColorMatrix type="matrix" values="0 0 0 0 0 0 0 0 0 0 0 0 0 0 0 0 0 0 0.25 0"/>
<feBlend mode="normal" in2="BackgroundImageFix" result="effect1_dropShadow_51_58"/>
<feBlend mode="normal" in="SourceGraphic" in2="effect1_dropShadow_51_58" result="shape"/>
</filter>
<radialGradient id="paint0_radial_51_58" cx="0" cy="0" r="1" gradientUnits="userSpaceOnUse" gradientTransform="translate(600 330.583) rotate(90) scale(419.418 768.786)">
<stop offset="0.130304" stop-color="#606060"/>
<stop offset="0.598002" stop-color="#464646"/>
<stop offset="1" stop-color="#2D2D2D"/>
</radialGradient>
<linearGradient id="paint1_linear_51_58" x1="122.524" y1="330.825" x2="454.774" y2="330.825" gradientUnits="userSpaceOnUse">
<stop stop-color="#9A9A9A"/>
<stop offset="1" stop-color="#343434"/>
</linearGradient>
<linearGradient id="paint2_linear_51_58" x1="122.524" y1="330.825" x2="454.774" y2="330.825" gradientUnits="userSpaceOnUse">
<stop stop-color="#ECECEC" stop-opacity="0"/>
<stop offset="0.22" stop-color="#B0B0B0" stop-opacity="0.152132"/>
<stop offset="0.5" stop-color="#7A7A7A" stop-opacity="0.304264"/>
<stop offset="0.78" stop-color="#B5B5B5" stop-opacity="0.652132"/>
<stop offset="1" stop-color="#5E5E5E"/>
</linearGradient>
<linearGradient id="paint3_linear_51_58" x1="122.524" y1="330.825" x2="454.774" y2="330.825" gradientUnits="userSpaceOnUse">
<stop stop-color="#9A9A9A"/>
<stop offset="1" stop-color="#343434"/>
</linearGradient>
<linearGradient id="paint4_linear_51_58" x1="122.524" y1="330.825" x2="454.774" y2="330.825" gradientUnits="userSpaceOnUse">
<stop stop-color="#ECECEC" stop-opacity="0"/>
<stop offset="0.22" stop-color="#B0B0B0" stop-opacity="0.152132"/>
<stop offset="0.5" stop-color="#7A7A7A" stop-opacity="0.304264"/>
<stop offset="0.78" stop-color="#B5B5B5" stop-opacity="0.652132"/>
<stop offset="1" stop-color="#5E5E5E"/>
</linearGradient>
<linearGradient id="paint5_linear_51_58" x1="1076.77" y1="330.825" x2="744.524" y2="330.825" gradientUnits="userSpaceOnUse">
<stop stop-color="#9A9A9A"/>
<stop offset="1" stop-color="#343434"/>
</linearGradient>
<linearGradient id="paint6_linear_51_58" x1="1076.77" y1="330.825" x2="744.524" y2="330.825" gradientUnits="userSpaceOnUse">
<stop stop-color="#ECECEC" stop-opacity="0"/>
<stop offset="0.22" stop-color="#B0B0B0" stop-opacity="0.152132"/>
<stop offset="0.5" stop-color="#7A7A7A" stop-opacity="0.304264"/>
<stop offset="0.78" stop-color="#B5B5B5" stop-opacity="0.652132"/>
<stop offset="1" stop-color="#5E5E5E"/>
</linearGradient>
<linearGradient id="paint7_linear_51_58" x1="1076.77" y1="330.825" x2="744.524" y2="330.825" gradientUnits="userSpaceOnUse">
<stop stop-color="#9A9A9A"/>
<stop offset="1" stop-color="#343434"/>
</linearGradient>
<linearGradient id="paint8_linear_51_58" x1="1076.77" y1="330.825" x2="744.524" y2="330.825" gradientUnits="userSpaceOnUse">
<stop stop-color="#ECECEC" stop-opacity="0"/>
<stop offset="0.22" stop-color="#B0B0B0" stop-opacity="0.152132"/>
<stop offset="0.5" stop-color="#7A7A7A" stop-opacity="0.304264"/>
<stop offset="0.78" stop-color="#B5B5B5" stop-opacity="0.652132"/>
<stop offset="1" stop-color="#5E5E5E"/>
</linearGradient>
<linearGradient id="paint9_linear_51_58" x1="464.524" y1="165" x2="734.524" y2="165" gradientUnits="userSpaceOnUse">
<stop offset="0.9" stop-color="#8A0000"/>
<stop offset="1" stop-color="#570000"/>
</linearGradient>
<linearGradient id="paint10_linear_51_58" x1="464.524" y1="323" x2="734.524" y2="323" gradientUnits="userSpaceOnUse">
<stop offset="0.8" stop-color="#8A0000"/>
<stop offset="1" stop-color="#570000"/>
</linearGradient>
<linearGradient id="paint11_linear_51_58" x1="464.524" y1="331" x2="516.524" y2="331" gradientUnits="userSpaceOnUse">
<stop stop-color="#570000"/>
<stop offset="1" stop-color="#8A0000"/>
</linearGradient>
<linearGradient id="paint12_linear_51_58" x1="464.524" y1="165" x2="734.524" y2="165" gradientUnits="userSpaceOnUse">
<stop offset="0.8" stop-color="#8A0000"/>
<stop offset="1" stop-color="#570000"/>
</linearGradient>
<linearGradient id="paint13_linear_51_58" x1="464.524" y1="323" x2="734.524" y2="323" gradientUnits="userSpaceOnUse">
<stop offset="0.8" stop-color="#8A0000"/>
<stop offset="1" stop-color="#570000"/>
</linearGradient>
<linearGradient id="paint14_linear_51_58" x1="464.524" y1="331" x2="516.524" y2="331" gradientUnits="userSpaceOnUse">
<stop stop-color="#570000"/>
<stop offset="1" stop-color="#8A0000"/>
</linearGradient>
<linearGradient id="paint15_linear_51_58" x1="464.524" y1="165" x2="734.524" y2="165" gradientUnits="userSpaceOnUse">
<stop offset="0.8" stop-color="#8A0000"/>
<stop offset="1" stop-color="#570000"/>
</linearGradient>
<linearGradient id="paint16_linear_51_58" x1="464.524" y1="323" x2="734.524" y2="323" gradientUnits="userSpaceOnUse">
<stop offset="0.8" stop-color="#8A0000"/>
<stop offset="1" stop-color="#570000"/>
</linearGradient>
<linearGradient id="paint17_linear_51_58" x1="464.524" y1="331" x2="516.524" y2="331" gradientUnits="userSpaceOnUse">
<stop stop-color="#570000"/>
<stop offset="1" stop-color="#8A0000"/>
</linearGradient>
<radialGradient id="paint18_radial_51_58" cx="0" cy="0" r="1" gradientUnits="userSpaceOnUse" gradientTransform="translate(599.524 590) rotate(180) scale(377 2593.52)">
<stop stop-color="#939393"/>
<stop offset="1" stop-color="#343434"/>
</radialGradient>
<radialGradient id="paint19_radial_51_58" cx="0" cy="0" r="1" gradientUnits="userSpaceOnUse" gradientTransform="translate(599.524 590) rotate(180) scale(377 2593.52)">
<stop stop-color="#939393"/>
<stop offset="0.95" stop-color="#2F2F2F"/>
</radialGradient>
<linearGradient id="paint20_linear_51_58" x1="599.524" y1="546" x2="599.524" y2="634" gradientUnits="userSpaceOnUse">
<stop offset="0.95" stop-color="#8A0000"/>
</linearGradient>
</defs>
</svg>
